<svg xmlns="http://www.w3.org/2000/svg" width="1187.27" height="606.56" viewBox="0 0 1187.27 606.56"><rect width="1187.27" height="606.56" rx="288.73"/><path d="M817.27,841.68q19.11-33.57,38.47-67c25.84-44.71,51.88-89.3,77.76-134,28-48.26,55.69-96.64,82.78-145.38H371.52q-7.38,7.2-14.74,14.42c-22.34,21.91-44.67,43.85-68.09,64.6-18.67,16.55-36.81,33.44-54.38,51.07V878H796.94C803.48,865.77,810.4,853.75,817.27,841.68Z" transform="translate(-54.37 -420.17)" stroke="#fff" stroke-miterlimit="10" stroke-width="54"/><path d="M865.3,578q-9.3,16.77-18.69,33.49C795.81,701.82,743.06,791,691.32,880.83,676,907.35,660.38,933.69,646,960.69H979.58V578Z" transform="translate(-54.37 -420.17)" stroke="#fff" stroke-miterlimit="10" stroke-width="54"/><text transform="translate(290.58 252.93)" font-size="152" fill="#fff" font-family="Bauhaus93, "Bauhaus 93"">Okapi</text><text transform="translate(247.19 366.69)" font-size="127" fill="#fff" font-family="Bauhaus93, "Bauhaus 93"">Studios</text></svg>