<svg xmlns="http://www.w3.org/2000/svg" width="888.61" height="453.45" viewBox="0 0 888.61 453.45"><path d="M340.08,812.32c-2.13-166.54,131.3-303.05,298-304.89S941.76,639.11,943.9,805.65" transform="translate(-197.45 -365.76)" fill="none" stroke="#ffc55b" stroke-miterlimit="10" stroke-width="25"/><line x1="440.26" y1="109.5" x2="438.85" y2="0.16" fill="none" stroke="#ffc55b" stroke-miterlimit="10" stroke-width="25"/><line x1="0.72" y1="419.21" x2="110.02" y2="425.48" fill="none" stroke="#ffc55b" stroke-miterlimit="10" stroke-width="25"/><line x1="778.51" y1="418.1" x2="887.62" y2="409.41" fill="none" stroke="#ffc55b" stroke-miterlimit="10" stroke-width="25"/><line x1="155.12" y1="273.5" x2="64.41" y2="212.14" fill="none" stroke="#ffc55b" stroke-miterlimit="10" stroke-width="25"/><line x1="272.24" y1="155.25" x2="216.29" y2="61.17" fill="none" stroke="#ffc55b" stroke-miterlimit="10" stroke-width="25"/><line x1="819.49" y1="203.8" x2="730.38" y2="267.15" fill="none" stroke="#ffc55b" stroke-miterlimit="10" stroke-width="25"/><line x1="675.74" y1="64.42" x2="622.22" y2="159.71" fill="none" stroke="#ffc55b" stroke-miterlimit="10" stroke-width="25"/><path d="M362.68,806.75c20-18.34,49.62-38.86,85.67-39,49-.15,63.54,37.51,116.42,40.12,54,2.67,62.65-35.44,118.64-36,63.34-.69,86.16,47.72,142.06,43,35.53-3,61.66-25.5,77.62-43" transform="translate(-197.45 -365.76)" fill="none" stroke="#37bebb" stroke-miterlimit="10" stroke-width="8"/><path d="M412.68,719.24c16.47-14.1,40.78-29.87,70.41-30,40.25-.11,52.22,28.85,95.67,30.86,44.39,2.05,51.48-27.26,97.49-27.73,52-.52,70.81,36.7,116.75,33.09,29.19-2.29,50.66-19.61,63.78-33.09" transform="translate(-197.45 -365.76)" fill="none" stroke="#37bebb" stroke-miterlimit="10" stroke-width="8"/><path d="M388.89,760.42c18.64-16,46.16-33.82,79.7-33.91,45.55-.13,59.1,32.65,108.29,34.92,50.25,2.33,58.28-30.85,110.37-31.38,58.92-.6,80.15,41.54,132.15,37.46,33.05-2.59,57.35-22.2,72.2-37.46" transform="translate(-197.45 -365.76)" fill="none" stroke="#37bebb" stroke-miterlimit="10" stroke-width="8"/><path d="M423.51,681.74c15.48-12.65,38.34-26.8,66.19-26.88,37.84-.1,49.09,25.88,89.94,27.68,41.73,1.84,48.4-24.45,91.66-24.87,48.93-.47,66.56,32.92,109.74,29.68,27.45-2.05,47.64-17.59,60-29.68" transform="translate(-197.45 -365.76)" fill="none" stroke="#37bebb" stroke-miterlimit="10" stroke-width="8"/><path d="M470.71,596.75c12.72-9.73,31.5-20.61,54.39-20.67C556.19,576,565.44,596,599,597.36c34.29,1.42,39.77-18.8,75.31-19.12,40.21-.36,54.7,25.31,90.19,22.82,22.56-1.58,39.15-13.52,49.28-22.82" transform="translate(-197.45 -365.76)" fill="none" stroke="#37bebb" stroke-miterlimit="10" stroke-width="8"/><path d="M443.76,637.21c14.4-11,35.66-23.33,61.57-23.4,35.2-.08,45.67,22.53,83.67,24.09,38.82,1.61,45-21.28,85.26-21.64,45.52-.42,61.92,28.65,102.09,25.83,25.54-1.79,44.31-15.31,55.78-25.83" transform="translate(-197.45 -365.76)" fill="none" stroke="#37bebb" stroke-miterlimit="10" stroke-width="8"/><path d="M540.13,559.29c8.06-6.17,20-13.07,34.48-13.11,19.72,0,25.58,12.62,46.87,13.5,21.74.89,25.21-11.92,47.75-12.13,25.5-.23,34.68,16.05,57.18,14.47,14.31-1,24.82-8.57,31.25-14.47" transform="translate(-197.45 -365.76)" fill="none" stroke="#37bebb" stroke-miterlimit="10" stroke-width="8"/><text transform="translate(232.88 317.93) scale(0.71 1)" font-size="120.74" font-family="BritannicBold, Britannic Bold">SunSplash</text><text transform="translate(311.18 413.75) scale(0.74 1)" font-size="120.74" font-family="BritannicBold, Britannic Bold">Beverages</text></svg>