<svg xmlns="http://www.w3.org/2000/svg" width="888.61" height="446.72" viewBox="0 0 888.61 446.72"><line x1="0.72" y1="419.21" x2="110.02" y2="425.48" fill="none" stroke="#ffc55b" stroke-miterlimit="10" stroke-width="25"/><path d="M330.56,846.23c-2.13-166.55,131.3-303.05,298-304.89S932.24,673,934.38,839.56" transform="translate(-187.93 -399.67)" fill="#fff" stroke="#ffc55b" stroke-miterlimit="10" stroke-width="25"/><line x1="440.26" y1="109.5" x2="438.85" y2="0.16" fill="none" stroke="#ffc55b" stroke-miterlimit="10" stroke-width="25"/><line x1="778.51" y1="418.1" x2="887.62" y2="409.41" fill="none" stroke="#ffc55b" stroke-miterlimit="10" stroke-width="25"/><line x1="155.12" y1="273.5" x2="64.41" y2="212.14" fill="none" stroke="#ffc55b" stroke-miterlimit="10" stroke-width="25"/><line x1="272.24" y1="155.25" x2="216.29" y2="61.17" fill="none" stroke="#ffc55b" stroke-miterlimit="10" stroke-width="25"/><line x1="819.49" y1="203.8" x2="730.38" y2="267.15" fill="none" stroke="#ffc55b" stroke-miterlimit="10" stroke-width="25"/><line x1="675.74" y1="64.42" x2="622.22" y2="159.71" fill="none" stroke="#ffc55b" stroke-miterlimit="10" stroke-width="25"/><path d="M353.15,828.83c19.62-17.94,48.57-38,83.86-38.13C484.94,790.56,499.2,827.42,551,830c52.87,2.61,61.32-34.69,116.12-35.28,62-.68,84.33,46.7,139,42.11,34.78-2.91,60.35-25,76-42.11" transform="translate(-187.93 -399.67)" fill="none" stroke="#37bebb" stroke-miterlimit="10" stroke-width="8"/><path d="M402.1,745.19C418.22,731.39,442,716,471,715.87c39.39-.11,51.11,28.23,93.64,30.2,43.44,2,50.39-26.68,95.42-27.14,50.94-.52,69.3,35.92,114.26,32.39,28.58-2.25,49.59-19.2,62.43-32.39" transform="translate(-187.93 -399.67)" fill="none" stroke="#37bebb" stroke-miterlimit="10" stroke-width="8"/><path d="M378.81,783.49c18.24-15.62,45.18-33.1,78-33.19,44.59-.12,57.86,32,106,34.18,49.18,2.28,57-30.2,108-30.71,57.66-.59,78.45,40.65,129.34,36.66,32.35-2.54,56.14-21.73,70.67-36.66" transform="translate(-187.93 -399.67)" fill="none" stroke="#37bebb" stroke-miterlimit="10" stroke-width="8"/><path d="M412.7,709.48c15.15-12.38,37.52-26.23,64.78-26.3,37-.1,48,25.32,88,27.08,40.84,1.81,47.37-23.92,89.71-24.33,47.89-.47,65.14,32.21,107.41,29.05,26.87-2,46.62-17.22,58.69-29.05" transform="translate(-187.93 -399.67)" fill="none" stroke="#37bebb" stroke-miterlimit="10" stroke-width="8"/><path d="M458.89,626.3c12.45-9.52,30.83-20.18,53.23-20.23,30.44-.08,39.49,19.47,72.34,20.83,33.57,1.39,38.93-18.4,73.72-18.72,39.36-.35,53.54,24.78,88.27,22.34,22.08-1.54,38.31-13.24,48.23-22.34" transform="translate(-187.93 -399.67)" fill="none" stroke="#37bebb" stroke-miterlimit="10" stroke-width="8"/><path d="M432.52,665.9c14.09-10.78,34.9-22.84,60.26-22.9,34.45-.09,44.69,22,81.89,23.58,38,1.57,44.07-20.83,83.45-21.19,44.55-.4,60.6,28,99.92,25.29,25-1.75,43.37-15,54.6-25.29" transform="translate(-187.93 -399.67)" fill="none" stroke="#37bebb" stroke-miterlimit="10" stroke-width="8"/><path d="M526.83,589.63c7.9-6,19.55-12.79,33.76-12.82,19.29,0,25,12.35,45.86,13.2,21.28.88,24.69-11.66,46.74-11.86,25-.23,33.95,15.7,56,14.16,14-1,24.29-8.39,30.58-14.16" transform="translate(-187.93 -399.67)" fill="none" stroke="#37bebb" stroke-miterlimit="10" stroke-width="8"/><text transform="translate(232.88 317.94) scale(0.71 1)" font-size="120.74" font-family="BritannicBold, Britannic Bold">SunSplash</text><text transform="translate(311.18 413.75) scale(0.74 1)" font-size="120.74" font-family="BritannicBold, Britannic Bold">Beverages</text></svg>